<svg width="32" height="33" viewBox="0 0 32 33" fill="none" xmlns="http://www.w3.org/2000/svg">
<path d="M24 11.5156C24 16.333 18.8413 21.421 16.8093 23.2423C16.5769 23.4198 16.2925 23.516 16 23.516C15.7075 23.516 15.4231 23.4198 15.1907 23.2423C13.16 21.421 8 16.333 8 11.5156C8 9.39389 8.84286 7.35906 10.3431 5.85877C11.8434 4.35848 13.8783 3.51563 16 3.51562C18.1217 3.51563 20.1566 4.35848 21.6569 5.85877C23.1571 7.35906 24 9.39389 24 11.5156Z" stroke="black" stroke-linecap="round" stroke-linejoin="round"/>
<path d="M15.9997 14.181C17.4724 14.181 18.6663 12.9871 18.6663 11.5143C18.6663 10.0416 17.4724 8.84766 15.9997 8.84766C14.5269 8.84766 13.333 10.0416 13.333 11.5143C13.333 12.9871 14.5269 14.181 15.9997 14.181Z" stroke="black" stroke-linecap="round" stroke-linejoin="round"/>
<path d="M11.6184 19.5156H6.67176C6.3922 19.5157 6.11975 19.6037 5.89292 19.7672C5.6661 19.9306 5.49638 20.1611 5.40776 20.4263L2.73576 28.4263C2.66877 28.6267 2.65038 28.8402 2.6821 29.0491C2.71382 29.258 2.79474 29.4564 2.91819 29.6279C3.04164 29.7994 3.20408 29.9391 3.39213 30.0355C3.58018 30.1319 3.78845 30.1822 3.99976 30.1823H27.9998C28.2109 30.1821 28.419 30.1318 28.6069 30.0355C28.7948 29.9392 28.9572 29.7996 29.0806 29.6283C29.204 29.457 29.285 29.2588 29.3168 29.05C29.3487 28.8413 29.3305 28.628 29.2638 28.4276L26.5971 20.4276C26.5086 20.162 26.3388 19.931 26.1117 19.7673C25.8846 19.6036 25.6117 19.5156 25.3318 19.5156H20.3824" stroke="black" stroke-linecap="round" stroke-linejoin="round"/>
</svg>
