<svg width="24" height="25" viewBox="0 0 24 25" fill="none" xmlns="http://www.w3.org/2000/svg">
<path d="M13.832 17.4157C14.0385 17.5105 14.2712 17.5322 14.4917 17.4771C14.7122 17.422 14.9073 17.2935 15.045 17.1127L15.4 16.6477C15.5863 16.3993 15.8279 16.1977 16.1056 16.0588C16.3833 15.9199 16.6895 15.8477 17 15.8477H20C20.5304 15.8477 21.0391 16.0584 21.4142 16.4334C21.7893 16.8085 22 17.3172 22 17.8477V20.8477C22 21.3781 21.7893 21.8868 21.4142 22.2619C21.0391 22.6369 20.5304 22.8477 20 22.8477C15.2261 22.8477 10.6477 20.9512 7.27208 17.5756C3.89642 14.1999 2 9.62155 2 4.84766C2 4.31722 2.21071 3.80852 2.58579 3.43344C2.96086 3.05837 3.46957 2.84766 4 2.84766H7C7.53043 2.84766 8.03914 3.05837 8.41421 3.43344C8.78929 3.80852 9 4.31722 9 4.84766V7.84766C9 8.15815 8.92771 8.46437 8.78885 8.74208C8.65 9.01979 8.44839 9.26136 8.2 9.44766L7.732 9.79866C7.54842 9.93883 7.41902 10.1382 7.36579 10.363C7.31256 10.5878 7.33878 10.824 7.44 11.0317C8.80668 13.8075 11.0544 16.0525 13.832 17.4157Z" stroke="black" stroke-linecap="round" stroke-linejoin="round"/>
</svg>
