<svg width="35" height="35" viewBox="0 0 35 35" fill="none" xmlns="http://www.w3.org/2000/svg">
<path d="M21.1984 31.6245C21.2538 31.7626 21.3501 31.8804 21.4744 31.9622C21.5987 32.0439 21.745 32.0857 21.8938 32.0819C22.0425 32.0781 22.1865 32.0289 22.3065 31.9409C22.4264 31.8528 22.5166 31.7302 22.5648 31.5895L32.044 3.88117C32.0907 3.75195 32.0996 3.61211 32.0697 3.47802C32.0398 3.34392 31.9723 3.22112 31.8752 3.12397C31.778 3.02682 31.6552 2.95935 31.5211 2.92945C31.387 2.89955 31.2472 2.90845 31.118 2.95513L3.40962 12.4343C3.26889 12.4826 3.14629 12.5727 3.05827 12.6927C2.97026 12.8126 2.92104 12.9566 2.91723 13.1054C2.91342 13.2541 2.9552 13.4004 3.03696 13.5247C3.11872 13.649 3.23655 13.7453 3.37462 13.8008L14.9392 18.4383C15.3048 18.5846 15.637 18.8035 15.9157 19.0817C16.1944 19.3599 16.4138 19.6917 16.5609 20.057L21.1984 31.6245Z" stroke="black" stroke-width="2" stroke-linecap="round" stroke-linejoin="round"/>
<path d="M31.8702 3.13086L15.916 19.0836" stroke="black" stroke-width="2" stroke-linecap="round" stroke-linejoin="round"/>
</svg>
