<svg width="487" height="207" viewBox="0 0 487 207" fill="none" xmlns="http://www.w3.org/2000/svg">
<path d="M2.31568 1.90577C23.1363 33.4307 42.2335 50.0812 78.7404 60.0518C111.708 69.0559 152.027 64.9851 185.873 63.4543C227.778 61.5592 304.747 74.2924 312.245 125.616C318.066 165.468 279.522 198.494 243.291 174.486C229.323 165.231 227.977 142.179 239.351 130.143C251.636 117.144 275.98 116.798 292.308 118.137C336.159 121.732 351.052 168.68 385.807 187.257C418.277 204.612 448.851 197.397 481.681 184.899C484.493 183.829 479.52 195.367 478.563 198.345C475.053 209.262 478.794 205.118 481.447 196.864C483.153 191.556 489.578 181.168 481.447 181.881C475.581 182.396 464.563 179.397 458.765 177.533" stroke="#334F2E" stroke-width="3" stroke-linecap="round"/>
</svg>
