<svg width="32" height="32" viewBox="0 0 32 32" fill="none" xmlns="http://www.w3.org/2000/svg">
<path d="M24 10.666C24 15.4833 18.8413 20.5713 16.8093 22.3927C16.5769 22.5702 16.2925 22.6664 16 22.6664C15.7075 22.6664 15.4231 22.5702 15.1907 22.3927C13.16 20.5713 8 15.4833 8 10.666C8 8.54428 8.84286 6.50945 10.3431 5.00916C11.8434 3.50887 13.8783 2.66602 16 2.66602C18.1217 2.66602 20.1566 3.50887 21.6569 5.00916C23.1571 6.50945 24 8.54428 24 10.666Z" stroke="#334F2E" stroke-linecap="round" stroke-linejoin="round"/>
<path d="M15.9997 13.3333C17.4724 13.3333 18.6663 12.1394 18.6663 10.6667C18.6663 9.19391 17.4724 8 15.9997 8C14.5269 8 13.333 9.19391 13.333 10.6667C13.333 12.1394 14.5269 13.3333 15.9997 13.3333Z" stroke="#334F2E" stroke-linecap="round" stroke-linejoin="round"/>
<path d="M11.6184 18.666H6.67176C6.3922 18.6661 6.11975 18.7541 5.89292 18.9175C5.6661 19.081 5.49638 19.3115 5.40776 19.5767L2.73576 27.5767C2.66877 27.7771 2.65038 27.9906 2.6821 28.1995C2.71382 28.4084 2.79474 28.6068 2.91819 28.7783C3.04164 28.9498 3.20408 29.0895 3.39213 29.1859C3.58018 29.2823 3.78845 29.3326 3.99976 29.3327H27.9998C28.2109 29.3325 28.419 29.2822 28.6069 29.1859C28.7948 29.0896 28.9572 28.95 29.0806 28.7787C29.204 28.6074 29.285 28.4092 29.3168 28.2004C29.3487 27.9917 29.3305 27.7784 29.2638 27.578L26.5971 19.578C26.5086 19.3124 26.3388 19.0814 26.1117 18.9177C25.8846 18.754 25.6117 18.6659 25.3318 18.666H20.3824" stroke="#334F2E" stroke-linecap="round" stroke-linejoin="round"/>
</svg>
